<?xml version="1.0" encoding="utf-8"?>
<!-- Generator: Adobe Illustrator 15.1.0, SVG Export Plug-In . SVG Version: 6.00 Build 0)  -->
<!DOCTYPE svg PUBLIC "-//W3C//DTD SVG 1.1//EN" "http://www.w3.org/Graphics/SVG/1.1/DTD/svg11.dtd">
<svg version="1.1" id="Layer_1" xmlns="http://www.w3.org/2000/svg" xmlns:xlink="http://www.w3.org/1999/xlink" x="0px" y="0px"
	 width="792px" height="612px" viewBox="0 0 792 612" enable-background="new 0 0 792 612" xml:space="preserve">
<rect x="395.001" y="214.758" fill="#434343" width="113.793" height="49.138"/>
<rect x="401.896" y="290.621" fill="#434343" width="98.276" height="137.93"/>
<ellipse fill="#666766" cx="451.328" cy="291.051" rx="48.707" ry="18.535"/>
<ellipse fill="#434343" cx="451.189" cy="425.396" rx="48.707" ry="18.533"/>
<g>
	<g>
		<path fill="none" stroke="#434343" stroke-width="2" stroke-miterlimit="10" d="M483.117,188.766
			c1.51-8.232,6.509-19.309,21.365-27.456"/>
		<g>
			<polygon fill="#434343" points="491.349,186.812 482.888,200.101 475.608,186.128 			"/>
		</g>
	</g>
</g>
<g>
	<g>
		<path fill="none" stroke="#434343" stroke-width="2" stroke-miterlimit="10" d="M422.893,188.766
			c-1.51-8.232-6.509-19.309-21.365-27.456"/>
		<g>
			<polygon fill="#434343" points="430.313,186.132 423.036,200.105 414.573,186.816 			"/>
		</g>
	</g>
</g>
<rect x="414.241" y="231.414" fill="none" width="82.483" height="29.311"/>
<text transform="matrix(1 0 0 1 414.2412 248.0659)" fill="#FFFFFF" font-family="'VDS'" font-size="23">Format</text>
<rect x="281.344" y="308.998" fill="none" width="96.276" height="164.655"/>
<text transform="matrix(1 0 0 1 286.0664 331.4434)"><tspan x="0" y="0" fill="#434343" font-family="'VDS'" font-size="31">Scrape</tspan><tspan x="34.426" y="37.199" fill="#434343" font-family="'VDS'" font-size="31">&amp;</tspan><tspan x="9.92" y="74.398" fill="#434343" font-family="'VDS'" font-size="31">Store</tspan></text>
<rect x="363.965" y="140.621" fill="none" width="76.725" height="22.414"/>
<text transform="matrix(1 0 0 1 363.9648 157.2725)" fill="#434343" font-family="'VDS'" font-size="23">Stream</text>
<rect x="489.24" y="139.758" fill="none" width="76.725" height="22.414"/>
<text transform="matrix(1 0 0 1 489.2402 156.4102)" fill="#434343" font-family="'VDS'" font-size="23">Poll</text>
</svg>
