<?xml version="1.0" encoding="utf-8"?>
<!-- Generator: Adobe Illustrator 15.1.0, SVG Export Plug-In . SVG Version: 6.00 Build 0)  -->
<!DOCTYPE svg PUBLIC "-//W3C//DTD SVG 1.1//EN" "http://www.w3.org/Graphics/SVG/1.1/DTD/svg11.dtd">
<svg version="1.1" id="Layer_1" xmlns="http://www.w3.org/2000/svg" xmlns:xlink="http://www.w3.org/1999/xlink" x="0px" y="0px"
	 width="792px" height="612px" viewBox="0 0 792 612" enable-background="new 0 0 792 612" xml:space="preserve">
<rect x="291.587" y="312.068" fill="#737577" width="200.862" height="69.828"/>
<rect x="554.518" y="311.207" fill="#737577" width="200.861" height="69.826"/>
<rect x="35.553" y="311.207" fill="#737577" width="200.861" height="69.826"/>
<g>
	<g>
		<line fill="none" stroke="#48484A" stroke-miterlimit="10" x1="245.896" y1="347.413" x2="271.479" y2="347.413"/>
		<g>
			<polygon fill="#48484A" points="270.02,352.371 278.655,347.386 270.02,342.399 			"/>
		</g>
	</g>
</g>
<g>
	<g>
		<line fill="none" stroke="#48484A" stroke-miterlimit="10" x1="507.965" y1="349.137" x2="533.549" y2="349.137"/>
		<g>
			<polygon fill="#48484A" points="532.09,354.096 540.725,349.109 532.09,344.123 			"/>
		</g>
	</g>
</g>
<g>
	<rect x="39.862" y="337.93" fill="none" width="193.104" height="43.104"/>
	<text transform="matrix(1 0 0 1 82.3882 357.4785)" fill="#F5F5F5" font-family="'VDS'" font-size="27">Tolkenize</text>
</g>
<g>
	<rect x="301.068" y="337.932" fill="none" width="189.655" height="37.931"/>
	<text transform="matrix(1 0 0 1 363.9287 357.4795)" fill="#F5F5F5" font-family="'VDS'" font-size="27">Parse</text>
</g>
<g>
	<rect x="560.552" y="337.93" fill="none" width="187.068" height="40.517"/>
	<text transform="matrix(1 0 0 1 610.0762 357.4775)" fill="#F5F5F5" font-family="'VDS'" font-size="27">Classify</text>
</g>
</svg>
