<?xml version="1.0" encoding="utf-8"?>
<!-- Generator: Adobe Illustrator 15.1.0, SVG Export Plug-In . SVG Version: 6.00 Build 0)  -->
<!DOCTYPE svg PUBLIC "-//W3C//DTD SVG 1.1//EN" "http://www.w3.org/Graphics/SVG/1.1/DTD/svg11.dtd">
<svg version="1.1" id="Layer_1" xmlns="http://www.w3.org/2000/svg" xmlns:xlink="http://www.w3.org/1999/xlink" x="0px" y="0px"
	 width="792px" height="612px" viewBox="0 0 792 612" enable-background="new 0 0 792 612" xml:space="preserve">
<rect x="377.62" y="232.138" fill="#636466" width="287.069" height="33.621"/>
<rect x="92.552" y="232.276" fill="#737577" width="287.069" height="33.621"/>
<rect x="92.414" y="265.759" fill="#48484A" width="572.415" height="35.345"/>
<g>
	<path fill="none" stroke="#48484A" stroke-width="2" stroke-miterlimit="10" d="M278.621,317.482c0,0-1.724,18.967,24.138,19.828
		s45.689-12.932,58.621-0.862s12.069,15.518,12.069,15.518"/>
	<path fill="none" stroke="#48484A" stroke-width="2" stroke-miterlimit="10" d="M468.436,317.482c0,0,1.725,18.967-24.139,19.828
		c-25.861,0.861-45.688-12.932-58.62-0.862s-12.069,15.518-12.069,15.518"/>
</g>
<g>
	<path fill="none" stroke="#58595B" stroke-width="2" stroke-miterlimit="10" d="M195.883,222.655c0,0-3.32-18.966,46.497-19.828
		s88.01,12.932,112.918,0.862c24.909-12.069,23.248-15.518,23.248-15.518"/>
	<path fill="none" stroke="#58595B" stroke-width="2" stroke-miterlimit="10" d="M561.518,222.655c0,0,3.32-18.966-46.498-19.828
		c-49.814-0.862-88.008,12.932-112.917,0.862c-24.909-12.069-23.248-15.518-23.248-15.518"/>
</g>
<rect x="149.311" y="241.035" fill="none" width="234.483" height="32.758"/>
<text transform="matrix(1 0 0 1 149.3105 254.5249)"><tspan x="0" y="0" fill="#F5F5F5" font-family="'MyriadPro-Regular'" font-size="19">01/01/2013 </tspan><tspan x="95.034" y="0" fill="#F5F5F5" font-family="'MyriadPro-Regular'" font-size="19" letter-spacing="8">	</tspan><tspan x="107.999" y="0" fill="#F5F5F5" font-family="'MyriadPro-Regular'" font-size="19">4:52</tspan></text>
<rect x="497.586" y="243.483" fill="none" width="234.482" height="32.758"/>
<text transform="matrix(1 0 0 1 497.5859 256.9727)" fill="#F5F5F5" font-family="'MyriadPro-Regular'" font-size="19">[44.527, 70.326]</text>
<rect x="149.724" y="275.241" fill="none" width="572.415" height="32.759"/>
<text transform="matrix(1 0 0 1 149.7241 288.731)"><tspan x="0" y="0" fill="#68BD45" font-family="'MyriadPro-Regular'" font-size="19">RT</tspan><tspan x="19.665" y="0" font-family="'MyriadPro-Regular'" font-size="19">  </tspan><tspan x="27.72" y="0" fill="#69CDEE" font-family="'MyriadPro-Regular'" font-size="19">@eartsar </tspan><tspan x="99.824" y="0" font-family="'MyriadPro-Regular'" font-size="19"> </tspan><tspan x="103.852" y="0" fill="#FFF34D" font-family="'MyriadPro-Regular'" font-size="19">This Debate is a Snoozefest! </tspan><tspan x="326.7" y="0" font-family="'MyriadPro-Regular'" font-size="19"> </tspan><tspan x="330.727" y="0" fill="#69CDEE" font-family="'MyriadPro-Regular'" font-size="19">#debatenonsense</tspan></text>
<g>
	<g>
		
			<line fill="none" stroke="#48484A" stroke-width="2" stroke-miterlimit="10" x1="158.793" y1="296.241" x2="158.793" y2="374.494"/>
		<g>
			<polygon fill="#48484A" points="152.843,372.743 158.826,383.105 164.81,372.743 			"/>
		</g>
	</g>
</g>
<g>
	<g>
		
			<line fill="none" stroke="#48484A" stroke-width="2" stroke-miterlimit="10" x1="214.759" y1="297.656" x2="214.759" y2="375.251"/>
		<g>
			<polygon fill="#48484A" points="208.809,373.5 214.792,383.862 220.775,373.5 			"/>
		</g>
	</g>
</g>
<g>
	<g>
		
			<line fill="none" stroke="#48484A" stroke-width="2" stroke-miterlimit="10" x1="556.207" y1="294.517" x2="556.207" y2="377.838"/>
		<g>
			<polygon fill="#48484A" points="550.258,376.086 556.24,386.449 562.223,376.086 			"/>
		</g>
	</g>
</g>
<image overflow="visible" width="2000" height="1624" xlink:href="url.png"  transform="matrix(0.0323 0 0 0.0323 60.6445 198.7065)">
</image>
</svg>
